<svg width="28" height="28" viewBox="0 0 28 28" fill="none" xmlns="http://www.w3.org/2000/svg">
<path fill-rule="evenodd" clip-rule="evenodd" d="M24.493 3.99476C24.843 6.0829 24.564 8.22796 23.6915 10.1571C23.597 10.3661 23.3888 10.5003 23.1595 10.5001H21.8248L22.5692 11.2444C22.7706 11.4461 22.7967 11.7638 22.631 11.9958C20.3192 15.2205 16.4155 16.9049 12.4833 16.3743C11.5337 17.1233 10.6843 17.5001 9.91667 17.5001C9.5945 17.5001 9.33333 17.2389 9.33333 16.9168C9.33333 16.5946 9.5945 16.3334 9.91667 16.3334C10.3717 16.3334 10.948 16.0768 11.6317 15.5588C11.1628 12.1815 12.3282 8.78266 14.7707 6.4037C17.2132 4.02473 20.6417 2.94935 24.0053 3.5071C24.2572 3.54516 24.4549 3.74287 24.493 3.99476ZM23.464 5.35976L20.8297 7.99643C20.6016 8.22452 20.2318 8.22452 20.0037 7.99643C19.7756 7.76834 19.7756 7.39852 20.0037 7.17043L22.638 4.53726C19.9473 4.42796 17.3354 5.45914 15.4451 7.37703C13.5547 9.29492 12.5615 11.9214 12.7097 14.6103C13.153 14.1728 13.629 13.6501 14.1353 13.0434C14.2669 12.8776 14.4781 12.796 14.687 12.8304C14.896 12.8648 15.0699 13.0097 15.1414 13.209C15.2129 13.4083 15.1708 13.6307 15.0313 13.7901C14.5577 14.3583 14.1038 14.8634 13.6698 15.3021C16.6623 15.3793 19.5179 14.0497 21.385 11.7099L20.0037 10.3298C19.8364 10.1629 19.7863 9.91164 19.8768 9.69339C19.9672 9.47514 20.1804 9.33301 20.4167 9.33343H22.7757C23.2871 8.07389 23.5219 6.71912 23.464 5.36093V5.35976ZM23.3333 14.5834C23.3333 14.2613 23.5945 14.0001 23.9167 14.0001C24.2388 14.0001 24.5 14.2613 24.5 14.5834V21.5834C24.5 23.1943 23.1942 24.5001 21.5833 24.5001H6.41667C4.80584 24.5001 3.5 23.1943 3.5 21.5834V6.41676C3.5 4.80593 4.80584 3.5001 6.41667 3.5001H13.4167C13.6251 3.5001 13.8176 3.61128 13.9218 3.79176C14.0261 3.97225 14.0261 4.19461 13.9218 4.3751C13.8176 4.55558 13.6251 4.66676 13.4167 4.66676H6.41667C5.45017 4.66676 4.66667 5.45026 4.66667 6.41676V21.5834C4.66667 22.5499 5.45017 23.3334 6.41667 23.3334H21.5833C22.5498 23.3334 23.3333 22.5499 23.3333 21.5834V14.5834Z" fill="white"/>
</svg>
