<svg width="12" height="12" viewBox="0 0 12 12" fill="none" xmlns="http://www.w3.org/2000/svg">
<path d="M4.67037 3.392C5.06096 2.41825 5.25626 1.93137 5.57355 1.86389C5.65698 1.84615 5.74321 1.84615 5.82664 1.86389C6.14393 1.93137 6.33923 2.41825 6.72983 3.392C6.95195 3.94575 7.06301 4.22263 7.27082 4.41095C7.32911 4.46377 7.39239 4.51081 7.45976 4.55142C7.69995 4.69619 7.9998 4.72304 8.59948 4.77675C9.61465 4.86767 10.1222 4.91312 10.2772 5.20253C10.3093 5.26247 10.3312 5.32737 10.3418 5.39453C10.3932 5.71879 10.02 6.05827 9.27375 6.73725L9.0665 6.92579C8.7176 7.24323 8.54314 7.40194 8.44224 7.60002C8.38171 7.71884 8.34112 7.8468 8.3221 7.97878C8.2904 8.19881 8.34149 8.42906 8.44366 8.88956L8.48017 9.05409C8.66339 9.87992 8.75501 10.2928 8.64064 10.4958C8.53792 10.6781 8.3487 10.7948 8.13968 10.8048C7.90697 10.8159 7.57909 10.5487 6.92332 10.0144C6.49128 9.66233 6.27526 9.48631 6.03545 9.41754C5.81629 9.35471 5.5839 9.35471 5.36474 9.41754C5.12493 9.48631 4.90891 9.66233 4.47687 10.0144C3.8211 10.5487 3.49322 10.8159 3.26052 10.8048C3.05149 10.7948 2.86227 10.6781 2.75955 10.4958C2.64518 10.2928 2.7368 9.87992 2.92002 9.05409L2.95653 8.88956C3.0587 8.42906 3.10979 8.19881 3.07808 7.97878C3.05907 7.8468 3.01848 7.71884 2.95795 7.60002C2.85705 7.40194 2.68259 7.24323 2.33369 6.92579L2.12644 6.73725C1.38015 6.05827 1.007 5.71879 1.05839 5.39453C1.06903 5.32737 1.09086 5.26247 1.12296 5.20253C1.27796 4.91312 1.78554 4.86767 2.80071 4.77675C3.40039 4.72304 3.70024 4.69619 3.94043 4.55142C4.0078 4.51081 4.07108 4.46377 4.12937 4.41095C4.33718 4.22263 4.44824 3.94575 4.67037 3.392Z" fill="#625DEE" stroke="#625DEE" stroke-width="2"/>
</svg>
