<svg width="17" height="17" viewBox="0 0 17 17" fill="none" xmlns="http://www.w3.org/2000/svg">
<path d="M6.87764 3.91908C7.49297 2.38509 7.80063 1.61809 8.30047 1.51179C8.4319 1.48384 8.56774 1.48384 8.69917 1.51179C9.19902 1.61809 9.50668 2.38509 10.122 3.91908C10.4719 4.79143 10.6469 5.22761 10.9743 5.52427C11.0661 5.60749 11.1658 5.6816 11.2719 5.74557C11.6503 5.97363 12.1226 6.01593 13.0673 6.10054C14.6666 6.24376 15.4662 6.31537 15.7104 6.77129C15.7609 6.86572 15.7953 6.96795 15.8121 7.07375C15.8931 7.58456 15.3052 8.11937 14.1295 9.18899L13.8031 9.48601C13.2534 9.98608 12.9786 10.2361 12.8196 10.5481C12.7243 10.7353 12.6603 10.9369 12.6304 11.1448C12.5804 11.4914 12.6609 11.8542 12.8219 12.5796L12.8794 12.8388C13.168 14.1398 13.3124 14.7903 13.1322 15.11C12.9704 15.3972 12.6723 15.5811 12.343 15.5968C11.9764 15.6143 11.4599 15.1934 10.4268 14.3516C9.74621 13.797 9.4059 13.5197 9.02811 13.4114C8.68288 13.3124 8.31677 13.3124 7.97153 13.4114C7.59375 13.5197 7.25344 13.797 6.57282 14.3516C5.53976 15.1934 5.02323 15.6143 4.65665 15.5968C4.32737 15.5811 4.02928 15.3972 3.86745 15.11C3.68729 14.7903 3.83161 14.1398 4.12026 12.8388L4.17777 12.5796C4.33872 11.8542 4.4192 11.4914 4.36926 11.1448C4.3393 10.9369 4.27536 10.7353 4.18001 10.5481C4.02105 10.2361 3.74622 9.98608 3.19658 9.48602L2.8701 9.18899C1.69443 8.11937 1.10659 7.58456 1.18754 7.07375C1.20431 6.96795 1.23869 6.86572 1.28927 6.77129C1.53345 6.31537 2.33306 6.24376 3.93229 6.10054C4.877 6.01593 5.34936 5.97363 5.72775 5.74557C5.83388 5.6816 5.93356 5.60749 6.02538 5.52427C6.35276 5.22761 6.52772 4.79143 6.87764 3.91908Z" fill="#625DEE" stroke="#625DEE" stroke-width="2"/>
</svg>
