<svg width="26" height="26" viewBox="0 0 26 26" fill="none" xmlns="http://www.w3.org/2000/svg">
<path d="M7.58331 12C7.03103 12 6.58331 12.4477 6.58331 13C6.58331 13.5523 7.03103 14 7.58331 14V12ZM22.75 14C23.3023 14 23.75 13.5523 23.75 13C23.75 12.4477 23.3023 12 22.75 12V14ZM7.58331 14H22.75V12H7.58331V14Z" fill="#625DEE"/>
<path d="M2.45149 12.7966L8.48503 8.48694C9.01452 8.10873 9.75002 8.48723 9.75002 9.13793V16.8622C9.75002 17.5129 9.01452 17.8914 8.48503 17.5131L2.45149 13.2035C2.31191 13.1038 2.31191 12.8963 2.45149 12.7966Z" fill="#625DEE"/>
</svg>
