<svg width="89" height="98" viewBox="0 0 89 98" fill="none" xmlns="http://www.w3.org/2000/svg">
<path d="M88.618 67.595L48.035 91.179L7.18604 67.595L47.769 44.011L88.618 67.595Z" fill="#916BFF"/>
<path d="M88.618 67.5959L88.6011 73.5699L48.0181 97.1539L48.035 91.1799L88.618 67.5959Z" fill="#9D7DFF"/>
<path d="M48.0349 91.179L48.0179 97.153L7.16895 73.569L7.18591 67.595L48.0349 91.179Z" fill="#765CE9"/>
<path d="M67.0149 38.3049L47.9979 49.356L28.856 38.3049L47.8729 27.2529L67.0149 38.3049Z" fill="url(#paint0_linear_39_941)"/>
<g opacity="0.4" filter="url(#filter0_f_39_941)">
<path d="M62.6041 38.3049L47.9841 46.8049L33.2681 38.3049L47.8881 29.8049L62.6041 38.3049Z" fill="#765CE9" fill-opacity="0.5"/>
</g>
<path d="M67.0151 38.304L66.9302 68.173L47.9131 79.225L47.9982 49.356L67.0151 38.304Z" fill="url(#paint1_linear_39_941)"/>
<g style="mix-blend-mode:multiply" filter="url(#filter1_f_39_941)">
<path d="M68.311 58.772L68.2839 68.494L62.094 72.094L62.121 62.3719L68.311 58.772Z" fill="url(#paint2_linear_39_941)" style="mix-blend-mode:multiply"/>
</g>
<path d="M47.998 49.356L47.9131 79.225L28.771 68.174L28.8561 38.3049L47.998 49.356Z" fill="url(#paint3_linear_39_941)"/>
<path opacity="0.75" d="M66.9781 27.323L47.9611 38.375L28.8191 27.324L47.8361 16.272L66.9781 27.323Z" fill="url(#paint4_linear_39_941)"/>
<g opacity="0.56" filter="url(#filter2_f_39_941)">
<path d="M62.094 27.3221L47.946 35.5441L33.7051 27.3221L47.853 19.1001L62.094 27.3221Z" fill="#765CE9" fill-opacity="0.5"/>
</g>
<path d="M66.9769 27.321L66.9659 31.3041L47.9509 42.359L47.9609 38.3761L66.9769 27.321Z" fill="url(#paint5_linear_39_941)"/>
<path d="M47.9612 38.3779L47.9502 42.36L28.8091 31.309L28.8202 27.3259L47.9612 38.3779Z" fill="url(#paint6_linear_39_941)"/>
<path opacity="0.75" d="M61.736 16.7941L47.9449 24.8081L34.062 16.7931L47.853 8.77905L61.736 16.7941Z" fill="#7FD0FF"/>
<path d="M61.7351 16.793L61.7241 20.776L47.9331 28.79L47.9441 24.807L61.7351 16.793Z" fill="#2F8EED"/>
<path d="M47.9451 24.807L47.9341 28.7889L34.052 20.7739L34.063 16.791L47.9451 24.807Z" fill="#6FB6FF"/>
<path d="M84.4561 46.684L78.6951 50.032L72.895 46.6849L78.656 43.3369L84.4561 46.684Z" fill="#F4EDF9"/>
<path d="M84.4562 46.6821L84.4001 66.5951L78.6392 69.9431L78.6962 50.03L84.4562 46.6821Z" fill="#EFDCF9"/>
<path d="M78.6971 50.031L78.6411 69.944L72.8411 66.597L72.8971 46.6841L78.6971 50.031Z" fill="#EEC1FF"/>
<path d="M74.1282 62.4381L68.3682 65.785L62.5681 62.4371L68.3271 59.0901L74.1282 62.4381Z" fill="#F4EDF9"/>
<path d="M74.123 62.438L74.095 72.395L68.3359 75.7421L68.364 65.786L74.123 62.438Z" fill="#EFDCF9"/>
<path d="M68.368 65.7841L68.3401 75.7401L62.54 72.3921L62.5681 62.436L68.368 65.7841Z" fill="#EEC1FF"/>
<path opacity="0.897" d="M84.4882 42.066L78.7291 45.413L72.9292 42.0651L78.6881 38.718L84.4882 42.066Z" fill="#FFB73E"/>
<path d="M84.4891 42.068L84.4611 43.719L78.7021 47.0659L78.7301 45.4149L84.4891 42.068Z" fill="#FFA338"/>
<path d="M78.7291 45.4131L78.701 47.0641L72.9011 43.7161L72.9291 42.0651L78.7291 45.4131Z" fill="#EC6B22"/>
<path style="mix-blend-mode:lighten" d="M62.2009 40.965L57.413 43.6649C55.813 44.5649 54.232 45.4869 52.641 46.3979L47.9979 49.0709L43.324 46.397C41.724 45.486 40.1309 44.5599 38.5239 43.6639L33.704 40.964C32.089 40.078 30.4819 39.178 28.8589 38.304C30.4269 39.273 32.01 40.2139 33.585 41.1699L38.3359 43.9919C39.9159 44.9379 41.514 45.8539 43.104 46.7849L47.7589 49.4979L48 59.8979L48.241 49.4979L52.866 46.7849C54.445 45.8539 56.0329 44.9389 57.6029 43.9919L62.323 41.1699C63.887 40.2139 65.46 39.27 67.017 38.304C65.403 39.178 63.8059 40.078 62.2009 40.965Z" fill="white"/>
<g opacity="0.5" filter="url(#filter3_f_39_941)">
<path d="M47.9981 20.047C51.8028 20.047 54.8871 18.4227 54.8871 16.419C54.8871 14.4153 51.8028 12.791 47.9981 12.791C44.1934 12.791 41.1091 14.4153 41.1091 16.419C41.1091 18.4227 44.1934 20.047 47.9981 20.047Z" fill="#765CE9" fill-opacity="0.5"/>
</g>
<path style="mix-blend-mode:lighten" d="M58.2579 18.745L54.793 20.719L51.337 22.708L47.9449 24.667L44.53 22.708L41.051 20.719C38.728 19.4 36.402 18.085 34.063 16.793C36.352 18.173 38.653 19.529 40.957 20.882L44.4189 22.901L47.826 24.881L47.9449 27.61L48.064 24.88L51.449 22.901L54.8879 20.8829L58.318 18.85L61.736 16.7949L58.2579 18.745Z" fill="white"/>
<path style="mix-blend-mode:lighten" d="M58.2571 32.29L54.7841 34.249C53.6231 34.898 52.477 35.57 51.323 36.23L47.959 38.167L44.572 36.23C43.411 35.569 42.256 34.897 41.088 34.249L37.588 32.29C36.416 31.648 35.25 30.996 34.072 30.364C35.208 31.064 36.356 31.7511 37.498 32.4451L40.943 34.493C42.089 35.18 43.243 35.844 44.401 36.519L47.7791 38.488L47.9551 41.1801L48.1311 38.4871L51.4861 36.5181C52.6311 35.8431 53.786 35.1791 54.921 34.4921L58.343 32.444C59.477 31.75 60.617 31.067 61.743 30.363C60.58 30.996 59.4211 31.648 58.2571 32.29Z" fill="white"/>
<path d="M48.0291 11.938C51.3256 11.938 53.9981 9.26559 53.9981 5.969C53.9981 2.67241 51.3256 0 48.0291 0C44.7325 0 42.0601 2.67241 42.0601 5.969C42.0601 9.26559 44.7325 11.938 48.0291 11.938Z" fill="url(#paint7_radial_39_941)"/>
<path style="mix-blend-mode:lighten" d="M78.4121 73.3879L68.2322 79.225C64.8322 81.165 61.4572 83.1359 58.0692 85.0909L48.0352 90.897L38.0012 85.0909C34.6142 83.1349 31.2341 81.165 27.8381 79.225L17.6582 73.3879L7.45215 67.595L17.5382 73.595L27.6501 79.55C31.0171 81.541 34.4022 83.501 37.7782 85.476L47.8021 91.3259L48.0361 94.498L48.2701 91.3259L58.2942 85.476C61.6702 83.501 65.0562 81.541 68.4232 79.55L78.5342 73.595L88.6191 67.595L78.4121 73.3879Z" fill="white"/>
<path opacity="0.9" d="M18.475 66.047L9.27502 71.394L0.0119629 66.046L9.21204 60.699L18.475 66.047Z" fill="#FFB73E"/>
<path d="M18.4751 66.0459L18.4641 70.0289L9.26416 75.376L9.27515 71.3939L18.4751 66.0459Z" fill="#FFA338"/>
<path d="M9.27405 71.3939L9.26306 75.3768L0 70.0289L0.0109863 66.0459L9.27405 71.3939Z" fill="#EC6B22"/>
<path d="M9.27417 59.897C11.6501 59.897 13.5762 57.9709 13.5762 55.595C13.5762 53.219 11.6501 51.293 9.27417 51.293C6.89824 51.293 4.97217 53.219 4.97217 55.595C4.97217 57.9709 6.89824 59.897 9.27417 59.897Z" fill="url(#paint8_radial_39_941)"/>
<g style="mix-blend-mode:multiply" opacity="0.58" filter="url(#filter4_f_39_941)">
<path d="M9.20508 68.501C11.9665 68.501 14.2051 67.3817 14.2051 66.001C14.2051 64.6203 11.9665 63.501 9.20508 63.501C6.44365 63.501 4.20508 64.6203 4.20508 66.001C4.20508 67.3817 6.44365 68.501 9.20508 68.501Z" fill="#E229A0" style="mix-blend-mode:multiply"/>
</g>
<defs>
<filter id="filter0_f_39_941" x="29.2681" y="25.8049" width="37.3359" height="25" filterUnits="userSpaceOnUse" color-interpolation-filters="sRGB">
<feFlood flood-opacity="0" result="BackgroundImageFix"/>
<feBlend mode="normal" in="SourceGraphic" in2="BackgroundImageFix" result="shape"/>
<feGaussianBlur stdDeviation="2" result="effect1_foregroundBlur_39_941"/>
</filter>
<filter id="filter1_f_39_941" x="58.094" y="54.772" width="14.217" height="21.322" filterUnits="userSpaceOnUse" color-interpolation-filters="sRGB">
<feFlood flood-opacity="0" result="BackgroundImageFix"/>
<feBlend mode="normal" in="SourceGraphic" in2="BackgroundImageFix" result="shape"/>
<feGaussianBlur stdDeviation="2" result="effect1_foregroundBlur_39_941"/>
</filter>
<filter id="filter2_f_39_941" x="23.7051" y="9.1001" width="48.3889" height="36.444" filterUnits="userSpaceOnUse" color-interpolation-filters="sRGB">
<feFlood flood-opacity="0" result="BackgroundImageFix"/>
<feBlend mode="normal" in="SourceGraphic" in2="BackgroundImageFix" result="shape"/>
<feGaussianBlur stdDeviation="5" result="effect1_foregroundBlur_39_941"/>
</filter>
<filter id="filter3_f_39_941" x="37.1091" y="8.79102" width="21.7781" height="15.256" filterUnits="userSpaceOnUse" color-interpolation-filters="sRGB">
<feFlood flood-opacity="0" result="BackgroundImageFix"/>
<feBlend mode="normal" in="SourceGraphic" in2="BackgroundImageFix" result="shape"/>
<feGaussianBlur stdDeviation="2" result="effect1_foregroundBlur_39_941"/>
</filter>
<filter id="filter4_f_39_941" x="0.205078" y="59.501" width="18" height="13" filterUnits="userSpaceOnUse" color-interpolation-filters="sRGB">
<feFlood flood-opacity="0" result="BackgroundImageFix"/>
<feBlend mode="normal" in="SourceGraphic" in2="BackgroundImageFix" result="shape"/>
<feGaussianBlur stdDeviation="2" result="effect1_foregroundBlur_39_941"/>
</filter>
<linearGradient id="paint0_linear_39_941" x1="47.9354" y1="54.9259" x2="47.9354" y2="10.963" gradientUnits="userSpaceOnUse">
<stop stop-color="#FFB7E3"/>
<stop offset="1" stop-color="#EF54BB"/>
</linearGradient>
<linearGradient id="paint1_linear_39_941" x1="56.4708" y1="45.9562" x2="70.6173" y2="85.6152" gradientUnits="userSpaceOnUse">
<stop stop-color="#FF8CD4"/>
<stop offset="1" stop-color="#EF54BB"/>
</linearGradient>
<linearGradient id="paint2_linear_39_941" x1="60.7449" y1="60.2907" x2="72.9687" y2="63.3594" gradientUnits="userSpaceOnUse">
<stop stop-color="#4C30B2"/>
<stop offset="1" stop-color="white" stop-opacity="0"/>
</linearGradient>
<linearGradient id="paint3_linear_39_941" x1="38.8267" y1="38.4277" x2="53.848" y2="62.4122" gradientUnits="userSpaceOnUse">
<stop stop-color="#FF8CD4"/>
<stop offset="1" stop-color="#EF54BB"/>
</linearGradient>
<linearGradient id="paint4_linear_39_941" x1="48.2421" y1="43.1493" x2="48.1012" y2="23.8292" gradientUnits="userSpaceOnUse">
<stop stop-color="#FFB73E"/>
<stop offset="1" stop-color="#FFA338"/>
</linearGradient>
<linearGradient id="paint5_linear_39_941" x1="56.9693" y1="33.3212" x2="58.5508" y2="41.1556" gradientUnits="userSpaceOnUse">
<stop stop-color="#FFB73E"/>
<stop offset="1" stop-color="#EC6B22"/>
</linearGradient>
<linearGradient id="paint6_linear_39_941" x1="39.6109" y1="32.1068" x2="38.4651" y2="36.2658" gradientUnits="userSpaceOnUse">
<stop stop-color="#FFB73E"/>
<stop offset="1" stop-color="#EC6B22"/>
</linearGradient>
<radialGradient id="paint7_radial_39_941" cx="0" cy="0" r="1" gradientUnits="userSpaceOnUse" gradientTransform="translate(53.7354 1.83845) scale(12.1529)">
<stop offset="0.274" stop-color="#FFB73E"/>
<stop offset="1" stop-color="#E229A0"/>
</radialGradient>
<radialGradient id="paint8_radial_39_941" cx="0" cy="0" r="1" gradientUnits="userSpaceOnUse" gradientTransform="translate(14.8237 50.0798) scale(8.75887)">
<stop stop-color="#FF8CD4"/>
<stop offset="0.517" stop-color="#FF8CD4"/>
<stop offset="1" stop-color="#EF54BB"/>
</radialGradient>
</defs>
</svg>
