<svg width="97" height="100" viewBox="0 0 97 100" fill="none" xmlns="http://www.w3.org/2000/svg">
<path d="M29.3828 85.973L51.8029 72.944L74.3708 85.973L51.9508 99.002L29.3828 85.973Z" fill="url(#paint0_linear_39_876)"/>
<path d="M51.8291 64.1439L29.4091 77.173L6.84302 64.1439L29.2631 51.115L51.8291 64.1439Z" fill="url(#paint1_linear_39_876)"/>
<path d="M51.83 64.144L51.8051 72.944L29.385 85.973L29.41 77.173L51.83 64.144Z" fill="url(#paint2_linear_39_876)"/>
<path d="M29.4088 77.1741L29.3838 85.974L6.81787 72.9451L6.8429 64.145L29.4088 77.1741Z" fill="url(#paint3_linear_39_876)"/>
<path d="M29.543 77.252L51.8979 64.261L51.762 64.028L29.4099 77.0179L6.90991 64.028L6.7749 64.262L29.2749 77.2529L29.408 81.9399L29.543 77.252Z" fill="url(#paint4_radial_39_876)"/>
<path d="M96.8782 41.9209L74.458 54.95L51.8921 41.9209L74.312 28.892L96.8782 41.9209Z" fill="url(#paint5_linear_39_876)"/>
<path d="M96.8772 41.9209L96.7891 72.9438L74.3691 85.9729L74.457 54.9498L96.8772 41.9209Z" fill="url(#paint6_linear_39_876)"/>
<path d="M74.457 54.9489L74.3691 85.9719L51.803 72.9429L51.8911 41.9199L74.457 54.9489Z" fill="url(#paint7_linear_39_876)"/>
<g opacity="0.8">
<path opacity="0.8" d="M74.4327 63.9711L52.0118 77L29.4448 63.9711L51.8658 50.942L74.4327 63.9711Z" fill="url(#paint8_linear_39_876)"/>
</g>
<path d="M74.4329 63.9701L74.3708 85.9701L51.9507 98.999L52.0127 76.999L74.4329 63.9701Z" fill="url(#paint9_linear_39_876)"/>
<path d="M52.0128 76.9991L51.9508 98.9991L29.3838 85.9701L29.4468 63.9701L52.0128 76.9991Z" fill="url(#paint10_linear_39_876)"/>
<path d="M68.795 67.171L63.171 70.396C61.294 71.468 59.428 72.5571 57.556 73.6371L52.0121 76.8451L46.432 73.6371C44.548 72.5571 42.669 71.468 40.78 70.396L35.119 67.171L29.4451 63.9711L35.0531 67.285L40.676 70.5751C42.549 71.6751 44.4311 72.758 46.3081 73.849L51.8781 77.079L52.0121 84.557L52.146 77.079L57.6791 73.849C59.5441 72.758 61.4141 71.6751 63.2791 70.5751L68.8651 67.285L74.4371 63.9711L68.795 67.171Z" fill="white"/>
<path d="M91.239 45.121L85.615 48.3459C83.739 49.4179 81.872 50.507 80 51.587L74.457 54.7939L68.8772 51.587C66.9932 50.506 65.1151 49.4179 63.2261 48.3459L57.5662 45.1219L51.8911 41.922L57.5 45.236L63.1221 48.526C64.9951 49.626 66.8772 50.7089 68.7542 51.7999L74.323 55.03L74.457 63.9719L74.5911 55.0289L80.124 51.7999C81.989 50.7089 83.8591 49.626 85.7241 48.526L91.3101 45.236L96.8821 41.922L91.239 45.121Z" fill="white"/>
<g opacity="0.9">
<path opacity="0.9" d="M89.9263 26.1329L74.5122 35.0909L58.9971 26.1329L74.4111 17.1749L89.9263 26.1329Z" fill="#FFB73E"/>
</g>
<path d="M89.9282 26.1329L89.9182 29.433L74.5042 38.391L74.5142 35.0909L89.9282 26.1329Z" fill="#FFA338"/>
<path d="M74.5132 35.095L74.5042 38.395L58.9893 29.438L58.9983 26.1379L74.5132 35.095Z" fill="#EC6B22"/>
<path d="M86.0562 28.344L82.196 30.573L74.5122 35.0129L66.7771 30.573L62.8931 28.344L58.9932 26.1329L62.8552 28.401L66.7283 30.651L74.4421 35.13L74.5081 37.093L74.5742 35.13L82.238 30.651L86.0852 28.401L89.9221 26.1329L86.0562 28.344Z" fill="white"/>
<g opacity="0.8">
<path opacity="0.8" d="M60.6309 40.287L52.5999 44.954L44.5168 40.287L52.5479 35.62L60.6309 40.287Z" fill="#FFB73E"/>
</g>
<path d="M60.625 40.287L60.616 43.587L52.585 48.254L52.594 44.954L60.625 40.287Z" fill="#FFA338"/>
<path d="M52.5911 44.954L52.582 48.254L44.499 43.587L44.509 40.287L52.5911 44.954Z" fill="#EC6B22"/>
<path d="M58.6021 41.425L56.585 42.5751L54.573 43.734L52.5959 44.876L50.606 43.734L48.5798 42.5751C47.2268 41.8071 45.8739 41.04 44.5129 40.287C45.8459 41.087 47.1871 41.878 48.5291 42.665L50.5449 43.84L52.53 44.993L52.5959 47.078L52.6619 44.993L54.634 43.84L56.634 42.665L58.634 41.4821L60.625 40.287L58.6021 41.425Z" fill="white"/>
<g opacity="0.9">
<path opacity="0.9" d="M19.4589 62.509L9.76489 68.1421L0.0078125 62.509L9.7019 56.8761L19.4589 62.509Z" fill="url(#paint11_linear_39_876)"/>
</g>
<path d="M19.4589 62.5081L19.4479 66.4921L9.75391 72.125L9.76489 68.1411L19.4589 62.5081Z" fill="url(#paint12_linear_39_876)"/>
<path d="M9.76794 68.1411L9.75696 72.125L0 66.4921L0.0109863 62.5081L9.76794 68.1411Z" fill="url(#paint13_linear_39_876)"/>
<path d="M17.016 63.8821L14.5809 65.2711L12.152 66.671L9.76599 68.0491L7.36597 66.671L4.92102 65.2711C3.28802 64.3441 1.65399 63.4181 0.0109863 62.5081C1.61999 63.4761 3.23903 64.429 4.85803 65.379L7.29199 66.7971L9.69202 68.1891L9.77197 70.7061L9.85193 68.1891L12.233 66.7971L14.65 65.379L17.062 63.951L19.4619 62.5081L17.016 63.8821Z" fill="white"/>
<g opacity="0.2" filter="url(#filter0_f_39_876)">
<path d="M74.4419 30.017C78.8822 30.017 82.4819 28.1213 82.4819 25.783C82.4819 23.4446 78.8822 21.549 74.4419 21.549C70.0015 21.549 66.4019 23.4446 66.4019 25.783C66.4019 28.1213 70.0015 30.017 74.4419 30.017Z" fill="#765CE9"/>
</g>
<g opacity="0.7">
<path opacity="0.7" d="M83.4883 19.823L74.8682 24.799L67.5232 20.53L76.1421 15.554L83.4883 19.823Z" fill="url(#paint14_linear_39_876)"/>
</g>
<path d="M83.4612 9.91797L83.489 19.818L76.1431 15.549L76.1152 5.64905L83.4612 9.91797Z" fill="url(#paint15_linear_39_876)"/>
<path d="M74.8691 24.7999L67.5242 20.5309L67.4961 10.626L74.8411 14.8949L74.8691 24.7999Z" fill="url(#paint16_linear_39_876)"/>
<path d="M74.8411 14.891L67.4961 10.623L76.1152 5.64697L83.4602 9.91504L74.8411 14.891Z" fill="url(#paint17_linear_39_876)"/>
<g opacity="0.5" filter="url(#filter1_f_39_876)">
<path d="M75.755 12.444C78.2828 12.444 80.332 11.365 80.332 10.034C80.332 8.70302 78.2828 7.62402 75.755 7.62402C73.2272 7.62402 71.178 8.70302 71.178 10.034C71.178 11.365 73.2272 12.444 75.755 12.444Z" fill="#EFDCF9"/>
</g>
<path d="M75.649 6.94C77.5654 6.94 79.119 5.38643 79.119 3.47C79.119 1.55357 77.5654 0 75.649 0C73.7325 0 72.179 1.55357 72.179 3.47C72.179 5.38643 73.7325 6.94 75.649 6.94Z" fill="url(#paint18_linear_39_876)"/>
<path style="mix-blend-mode:lighten" d="M79.123 12.36L76.9651 13.597L74.8411 14.8199C73.6251 14.1199 72.4141 13.412 71.1931 12.72C69.9721 12.028 68.7332 11.3201 67.4932 10.6281C68.7045 11.3614 69.9204 12.0871 71.1411 12.8051C72.3471 13.5221 73.5612 14.224 74.7712 14.934L74.8381 20.3459L74.905 14.9351L77.0242 13.708L79.175 12.457C80.605 11.617 82.036 10.777 83.457 9.92102C82.011 10.722 80.566 11.541 79.123 12.36Z" fill="url(#paint19_radial_39_876)"/>
<defs>
<filter id="filter0_f_39_876" x="62.4019" y="17.549" width="24.0801" height="16.468" filterUnits="userSpaceOnUse" color-interpolation-filters="sRGB">
<feFlood flood-opacity="0" result="BackgroundImageFix"/>
<feBlend mode="normal" in="SourceGraphic" in2="BackgroundImageFix" result="shape"/>
<feGaussianBlur stdDeviation="2" result="effect1_foregroundBlur_39_876"/>
</filter>
<filter id="filter1_f_39_876" x="67.178" y="3.62402" width="17.1541" height="12.8199" filterUnits="userSpaceOnUse" color-interpolation-filters="sRGB">
<feFlood flood-opacity="0" result="BackgroundImageFix"/>
<feBlend mode="normal" in="SourceGraphic" in2="BackgroundImageFix" result="shape"/>
<feGaussianBlur stdDeviation="2" result="effect1_foregroundBlur_39_876"/>
</filter>
<linearGradient id="paint0_linear_39_876" x1="29.3828" y1="85.973" x2="74.3708" y2="85.973" gradientUnits="userSpaceOnUse">
<stop stop-color="#7FD0FF"/>
<stop offset="1" stop-color="#2F8EED"/>
</linearGradient>
<linearGradient id="paint1_linear_39_876" x1="18.4781" y1="72.5009" x2="38.2678" y2="24.9631" gradientUnits="userSpaceOnUse">
<stop stop-color="#FF8CD4"/>
<stop offset="1" stop-color="#EF54BB"/>
</linearGradient>
<linearGradient id="paint2_linear_39_876" x1="29.385" y1="75.0585" x2="37.478" y2="81.5009" gradientUnits="userSpaceOnUse">
<stop stop-color="#FF8CD4"/>
<stop offset="1" stop-color="#EF54BB"/>
</linearGradient>
<linearGradient id="paint3_linear_39_876" x1="11.2683" y1="85.21" x2="15.7941" y2="79.3588" gradientUnits="userSpaceOnUse">
<stop stop-color="#FF8CD4"/>
<stop offset="1" stop-color="#EF54BB"/>
</linearGradient>
<radialGradient id="paint4_radial_39_876" cx="0" cy="0" r="1" gradientUnits="userSpaceOnUse" gradientTransform="translate(-1093.58 72.9839) scale(11.3932 11.392)">
<stop stop-color="white"/>
<stop offset="1" stop-color="#EF54BB"/>
</radialGradient>
<linearGradient id="paint5_linear_39_876" x1="61.4291" y1="45.0219" x2="110.825" y2="9.73075" gradientUnits="userSpaceOnUse">
<stop stop-color="#9175F9"/>
<stop offset="1" stop-color="#4C30B2"/>
</linearGradient>
<linearGradient id="paint6_linear_39_876" x1="77.3627" y1="47.6477" x2="104.44" y2="61.5923" gradientUnits="userSpaceOnUse">
<stop stop-color="#9175F9"/>
<stop offset="1" stop-color="#4C30B2"/>
</linearGradient>
<linearGradient id="paint7_linear_39_876" x1="58.2367" y1="78.7914" x2="79.2565" y2="61.9198" gradientUnits="userSpaceOnUse">
<stop stop-color="#9175F9"/>
<stop offset="1" stop-color="#4C30B2"/>
</linearGradient>
<linearGradient id="paint8_linear_39_876" x1="29.4448" y1="63.971" x2="74.4327" y2="63.971" gradientUnits="userSpaceOnUse">
<stop stop-color="#7FD0FF"/>
<stop offset="1" stop-color="#2F8EED"/>
</linearGradient>
<linearGradient id="paint9_linear_39_876" x1="51.9507" y1="81.4846" x2="74.4329" y2="81.4846" gradientUnits="userSpaceOnUse">
<stop stop-color="#7FD0FF"/>
<stop offset="1" stop-color="#2F8EED"/>
</linearGradient>
<linearGradient id="paint10_linear_39_876" x1="29.3838" y1="81.4846" x2="52.0128" y2="81.4846" gradientUnits="userSpaceOnUse">
<stop stop-color="#7FD0FF"/>
<stop offset="1" stop-color="#2F8EED"/>
</linearGradient>
<linearGradient id="paint11_linear_39_876" x1="0.0078125" y1="62.5091" x2="19.4589" y2="62.5091" gradientUnits="userSpaceOnUse">
<stop stop-color="#9175F9"/>
<stop offset="1" stop-color="#4C30B2"/>
</linearGradient>
<linearGradient id="paint12_linear_39_876" x1="9.75391" y1="67.3165" x2="19.4589" y2="67.3165" gradientUnits="userSpaceOnUse">
<stop stop-color="#9175F9"/>
<stop offset="1" stop-color="#4C30B2"/>
</linearGradient>
<linearGradient id="paint13_linear_39_876" x1="0" y1="67.3165" x2="9.76794" y2="67.3165" gradientUnits="userSpaceOnUse">
<stop stop-color="#9175F9"/>
<stop offset="1" stop-color="#4C30B2"/>
</linearGradient>
<linearGradient id="paint14_linear_39_876" x1="67.5232" y1="20.1765" x2="83.4883" y2="20.1765" gradientUnits="userSpaceOnUse">
<stop stop-color="#9175F9"/>
<stop offset="1" stop-color="#4C30B2"/>
</linearGradient>
<linearGradient id="paint15_linear_39_876" x1="76.1152" y1="12.7335" x2="83.489" y2="12.7335" gradientUnits="userSpaceOnUse">
<stop stop-color="#9175F9"/>
<stop offset="1" stop-color="#4C30B2"/>
</linearGradient>
<linearGradient id="paint16_linear_39_876" x1="67.4961" y1="17.713" x2="74.8691" y2="17.713" gradientUnits="userSpaceOnUse">
<stop stop-color="#9175F9"/>
<stop offset="1" stop-color="#4C30B2"/>
</linearGradient>
<linearGradient id="paint17_linear_39_876" x1="67.4961" y1="10.269" x2="83.4602" y2="10.269" gradientUnits="userSpaceOnUse">
<stop stop-color="#9175F9"/>
<stop offset="1" stop-color="#4C30B2"/>
</linearGradient>
<linearGradient id="paint18_linear_39_876" x1="81.2357" y1="0.187381" x2="70.6105" y2="6.42644" gradientUnits="userSpaceOnUse">
<stop offset="0.274" stop-color="#FFB73E"/>
<stop offset="1" stop-color="#E229A0"/>
</linearGradient>
<radialGradient id="paint19_radial_39_876" cx="0" cy="0" r="1" gradientUnits="userSpaceOnUse" gradientTransform="translate(-721.773 15.1335) scale(6.74459 6.74493)">
<stop stop-color="white"/>
<stop offset="1" stop-color="#4C30B2"/>
</radialGradient>
</defs>
</svg>
