<svg width="21" height="27" viewBox="0 0 21 27" fill="none" xmlns="http://www.w3.org/2000/svg"><path fill-rule="evenodd" clip-rule="evenodd" d="M14.5897 23.6605C13.9733 25.4074 12.3222 26.5756 10.4697 26.5756C8.61724 26.5756 6.96615 25.4074 6.34976 23.6605H4.03356C2.80157 23.6606 1.65313 23.0375 0.981655 22.0046C0.310181 20.9717 0.206838 19.6692 0.707027 18.5433L1.73483 16.2271V12.0139C1.73438 8.31138 4.06757 5.0105 7.55809 3.77549V3.27906C7.55809 1.67101 8.86167 0.367432 10.4697 0.367432C12.0778 0.367432 13.3813 1.67101 13.3813 3.27906V3.77549C16.7734 4.97508 19.2046 8.21136 19.2046 12.0139V16.2271L20.2339 18.5418C20.7347 19.6678 20.6317 20.9708 19.9601 22.0042C19.2886 23.0375 18.1397 23.6608 16.9073 23.6605H14.5897ZM12.9926 23.6605H7.94679C8.46772 24.5611 9.42926 25.1158 10.4697 25.1158C11.5102 25.1158 12.4717 24.5611 12.9926 23.6605ZM11.9255 3.39989V3.27906C11.9255 2.47504 11.2737 1.82325 10.4697 1.82325C9.66569 1.82325 9.0139 2.47504 9.0139 3.27906V3.39989C9.9777 3.23809 10.9617 3.23809 11.9255 3.39989V3.39989ZM10.4697 4.73487C6.4496 4.73487 3.19065 7.99382 3.19065 12.0139V16.3814L3.12805 16.6769L2.03618 19.1343C1.73618 19.8096 1.79803 20.5908 2.20056 21.2105C2.6031 21.8302 3.29171 22.2042 4.03065 22.2046H16.9073C17.6469 22.205 18.3364 21.8309 18.7394 21.2107C19.1423 20.5905 19.204 19.8085 18.9032 19.1329L17.8114 16.6769L17.7488 16.3814V12.0139C17.7488 7.99382 14.4898 4.73487 10.4697 4.73487Z" fill="#7B91B0"/></svg>
