<svg width="60" height="60" viewBox="0 0 60 60" fill="none" xmlns="http://www.w3.org/2000/svg">
<path d="M0.46875 0H0V0.46875H0.46875V0Z" fill="black"/>
<path d="M46.5746 5.11827C42.2393 2.70292 37.348 1.46225 32.3855 1.51921C27.4231 1.57616 22.5616 2.92875 18.2828 5.44296C14.004 7.95717 10.4563 11.5457 7.99139 15.8531C5.52645 20.1605 4.22974 25.0372 4.22974 30C4.22974 34.9628 5.52645 39.8395 7.99139 44.1469C10.4563 48.4542 14.004 52.0428 18.2828 54.557C22.5616 57.0712 27.4231 58.4238 32.3855 58.4808C37.348 58.5377 42.2393 57.2971 46.5746 54.8817C42.0733 57.8758 36.844 59.5927 31.4439 59.8495C26.0438 60.1063 20.6751 58.8934 15.91 56.3399C11.1448 53.7865 7.16154 49.9882 4.38462 45.3497C1.6077 40.7111 0.141113 35.4062 0.141113 30C0.141113 24.5938 1.6077 19.2888 4.38462 14.6503C7.16154 10.0118 11.1448 6.21349 15.91 3.66004C20.6751 1.10658 26.0438 -0.10636 31.4439 0.150437C36.844 0.407235 42.0733 2.12415 46.5746 5.11827Z" fill="#FFCFDC" fill-opacity="0.28"/>
<path d="M13.4255 54.8817C17.7609 57.2971 22.6522 58.5377 27.6146 58.4808C32.5771 58.4238 37.4386 57.0712 41.7174 54.557C45.9962 52.0428 49.5438 48.4542 52.0088 44.1469C54.4737 39.8395 55.7704 34.9628 55.7704 30C55.7704 25.0372 54.4737 20.1605 52.0088 15.8531C49.5438 11.5457 45.9962 7.95717 41.7174 5.44296C37.4386 2.92875 32.5771 1.57616 27.6146 1.51921C22.6522 1.46225 17.7609 2.70292 13.4255 5.11827C17.9269 2.12415 23.1562 0.407235 28.5563 0.150437C33.9564 -0.10636 39.325 1.10658 44.0902 3.66004C48.8554 6.21349 52.8386 10.0118 55.6156 14.6503C58.3925 19.2888 59.8591 24.5938 59.8591 30C59.8591 35.4062 58.3925 40.7111 55.6156 45.3497C52.8386 49.9882 48.8554 53.7865 44.0902 56.3399C39.325 58.8934 33.9564 60.1063 28.5563 59.8495C23.1562 59.5927 17.9269 57.8758 13.4255 54.8817Z" fill="#FF9AB7" fill-opacity="0.58"/>
<path d="M54.8817 46.5529C57.2971 42.2175 58.5377 37.3263 58.4808 32.3638C58.4238 27.4013 57.0712 22.5398 54.557 18.261C52.0428 13.9822 48.4542 10.4346 44.1469 7.96967C39.8395 5.50472 34.9628 4.20801 30 4.20801C25.0372 4.20801 20.1605 5.50472 15.8531 7.96967C11.5457 10.4346 7.95717 13.9822 5.44296 18.261C2.92875 22.5398 1.57616 27.4013 1.51921 32.3638C1.46225 37.3263 2.70292 42.2175 5.11827 46.5529C2.12415 42.0515 0.407235 36.8222 0.150437 31.4221C-0.10636 26.022 1.10658 20.6534 3.66004 15.8882C6.21349 11.123 10.0118 7.13981 14.6503 4.36289C19.2888 1.58597 24.5938 0.119385 30 0.119385C35.4062 0.119385 40.7111 1.58597 45.3497 4.36289C49.9882 7.13981 53.7865 11.123 56.3399 15.8882C58.8934 20.6534 60.1063 26.022 59.8495 31.4221C59.5927 36.8222 57.8758 42.0515 54.8817 46.5529Z" fill="#FF5283"/>
</svg>
