<svg width="26" height="28" viewBox="0 0 26 28" fill="none" xmlns="http://www.w3.org/2000/svg"><path fill-rule="evenodd" clip-rule="evenodd" d="M18.6667 3.66671H7.33333V4.37504C7.33333 4.76624 7.0162 5.08337 6.625 5.08337C6.2338 5.08337 5.91667 4.76624 5.91667 4.37504V3.66671H3.79167C2.61806 3.66671 1.66667 4.6181 1.66667 5.79171V9.33337H24.3333V5.79171C24.3333 4.6181 23.3819 3.66671 22.2083 3.66671H20.0833V4.37504C20.0833 4.76624 19.7662 5.08337 19.375 5.08337C18.9838 5.08337 18.6667 4.76624 18.6667 4.37504V3.66671ZM20.0833 2.25004H22.2083C24.1643 2.25004 25.75 3.8357 25.75 5.79171V24.2183C25.75 26.1743 24.1643 27.76 22.2083 27.76H3.79167C1.83566 27.76 0.25 26.1743 0.25 24.2183V5.79171C0.25 3.8357 1.83566 2.25004 3.79167 2.25004H5.91667V1.54171C5.91667 1.15051 6.2338 0.833374 6.625 0.833374C7.0162 0.833374 7.33333 1.15051 7.33333 1.54171V2.25004H18.6667V1.54171C18.6667 1.15051 18.9838 0.833374 19.375 0.833374C19.7662 0.833374 20.0833 1.15051 20.0833 1.54171V2.25004ZM24.3333 10.75H1.66667V24.2183C1.66667 25.3919 2.61806 26.3433 3.79167 26.3433H22.2083C23.3819 26.3433 24.3333 25.3919 24.3333 24.2183V10.75ZM3.08333 12.875C3.08333 12.4838 3.40046 12.1667 3.79167 12.1667H22.2083C22.5995 12.1667 22.9167 12.4838 22.9167 12.875V15.7084C22.9167 16.0996 22.5995 16.4167 22.2083 16.4167H3.79167C3.40046 16.4167 3.08333 16.0996 3.08333 15.7084V12.875ZM4.5 13.5834V15H21.5V13.5834H4.5Z" fill="white"/></svg>
