<svg width="26" height="26" viewBox="0 0 26 26" fill="none" xmlns="http://www.w3.org/2000/svg"><path fill-rule="evenodd" clip-rule="evenodd" d="M0.958333 25.75C0.567132 25.75 0.25 25.4329 0.25 25.0417C0.25 24.6505 0.567132 24.3333 0.958333 24.3333H25.0417C25.4329 24.3333 25.75 24.6505 25.75 25.0417C25.75 25.4329 25.4329 25.75 25.0417 25.75H0.958333ZM3.08333 3.79167C3.08333 1.83566 4.66899 0.25 6.625 0.25H8.04167C9.99768 0.25 11.5833 1.83566 11.5833 3.79167V17.9583C11.5833 19.9143 9.99768 21.5 8.04167 21.5H6.625C4.66899 21.5 3.08333 19.9143 3.08333 17.9583V3.79167ZM4.5 3.79167V17.9583C4.5 19.1319 5.45139 20.0833 6.625 20.0833H8.04167C9.21527 20.0833 10.1667 19.1319 10.1667 17.9583V3.79167C10.1667 2.61806 9.21527 1.66667 8.04167 1.66667H6.625C5.45139 1.66667 4.5 2.61806 4.5 3.79167ZM14.4167 8.04167C14.4167 6.08566 16.0023 4.5 17.9583 4.5H19.375C21.331 4.5 22.9167 6.08566 22.9167 8.04167V17.9583C22.9167 19.9143 21.331 21.5 19.375 21.5H17.9583C16.0023 21.5 14.4167 19.9143 14.4167 17.9583V8.04167ZM15.8333 8.04167V17.9583C15.8333 19.1319 16.7847 20.0833 17.9583 20.0833H19.375C20.5486 20.0833 21.5 19.1319 21.5 17.9583V8.04167C21.5 6.86806 20.5486 5.91667 19.375 5.91667H17.9583C16.7847 5.91667 15.8333 6.86806 15.8333 8.04167Z"/></svg>
