<svg width="26" height="26" viewBox="0 0 26 26" fill="none" xmlns="http://www.w3.org/2000/svg"><path fill-rule="evenodd" clip-rule="evenodd" d="M7.83625 12.1237L2.76625 14.7325C2.14195 15.0541 1.74973 15.6977 1.75 16.4V17.375C1.75 18.4105 2.58947 19.25 3.625 19.25C3.97018 19.25 4.25 19.5298 4.25 19.875C4.25 20.2202 3.97018 20.5 3.625 20.5C1.89911 20.5 0.5 19.1009 0.5 17.375V16.4C0.499951 15.2294 1.15414 14.1569 2.195 13.6212L6.3925 11.4612C4.56515 9.86672 3.82521 7.35901 4.49424 5.02789C5.16326 2.69676 7.12046 0.963126 9.51529 0.580356C11.9101 0.197587 14.3102 1.2348 15.6725 3.24125C15.8021 3.42586 15.8221 3.66595 15.725 3.86949C15.6278 4.07303 15.4286 4.20845 15.2035 4.22383C14.9785 4.23921 14.7627 4.13218 14.6388 3.94375C13.4911 2.25314 11.4301 1.43101 9.43391 1.86748C7.4377 2.30395 5.90795 3.91118 5.57056 5.92651C5.23317 7.94184 6.15604 9.95967 7.90125 11.0225C8.09761 11.1431 8.21169 11.3619 8.1981 11.592C8.18451 11.822 8.04545 12.0259 7.83625 12.1225V12.1237ZM12.9513 17.4587L7.85 19.7775C7.18011 20.0816 6.74994 20.7493 6.75 21.485V22.375C6.75 22.8723 6.94754 23.3492 7.29917 23.7008C7.65081 24.0525 8.12772 24.25 8.625 24.25H22.375C23.4105 24.25 24.25 23.4105 24.25 22.375V21.485C24.2501 20.7493 23.8199 20.0816 23.15 19.7775L18.0487 17.4587C17.2468 17.8169 16.3782 18.0013 15.5 18C14.6218 18.0013 13.7532 17.8169 12.9513 17.4587ZM11.6525 16.6763C9.55027 15.0341 8.72204 12.2386 9.59043 9.71631C10.4588 7.194 12.8324 5.50088 15.5 5.50088C18.1676 5.50088 20.5412 7.194 21.4096 9.71631C22.278 12.2386 21.4497 15.0341 19.3475 16.6763L23.6688 18.6388C24.785 19.1464 25.5011 20.26 25.5 21.4862V22.3762C25.5 23.2051 25.1708 23.9999 24.5847 24.586C23.9987 25.172 23.2038 25.5012 22.375 25.5012H8.625C7.79598 25.5012 7.00094 25.1718 6.41485 24.5855C5.82876 23.9992 5.49967 23.204 5.5 22.375V21.485C5.49985 20.2597 6.21585 19.1473 7.33125 18.64L11.6525 16.6763ZM15.5 16.75C18.2614 16.75 20.5 14.5114 20.5 11.75C20.5 8.98857 18.2614 6.75 15.5 6.75C12.7386 6.75 10.5 8.98857 10.5 11.75C10.5 14.5114 12.7386 16.75 15.5 16.75Z" fill="white"/></svg>
