<svg width="26" height="18" viewBox="0 0 26 18" fill="none" xmlns="http://www.w3.org/2000/svg"><path fill-rule="evenodd" clip-rule="evenodd" d="M2.80875 16.325C3.055 16.445 3.3325 16.5125 3.625 16.5125H22.375C22.6675 16.5125 22.945 16.445 23.1912 16.325L15.8062 9.375L13.3975 11.3575C13.1666 11.5478 12.8334 11.5478 12.6025 11.3575L10.1938 9.37375L2.80875 16.325ZM1.92875 15.4375C1.93447 15.4316 1.9403 15.4257 1.94625 15.42L9.22125 8.5725L1.9775 2.6075C1.96184 2.59448 1.94683 2.58072 1.9325 2.56625C1.81184 2.81875 1.74947 3.09515 1.75 3.375V14.6375C1.75 14.9237 1.81375 15.195 1.92875 15.4375ZM24.0712 15.4375C24.1862 15.195 24.25 14.9237 24.25 14.6375V3.375C24.25 3.085 24.185 2.8125 24.0675 2.56625C24.0532 2.58072 24.0382 2.59448 24.0225 2.6075L16.7787 8.5725L24.0537 15.42L24.0712 15.4375ZM23.18 1.68125C22.9285 1.56157 22.6535 1.49964 22.375 1.5H3.625C3.3375 1.5 3.0625 1.565 2.82 1.68125L13 10.065L23.18 1.68125ZM3.625 0.25H22.375C24.1009 0.25 25.5 1.64911 25.5 3.375V14.6375C25.5 16.3634 24.1009 17.7625 22.375 17.7625H3.625C1.89911 17.7625 0.5 16.3634 0.5 14.6375V3.375C0.5 1.64911 1.89911 0.25 3.625 0.25Z" fill="white"/></svg>
