<svg width="25" height="31" viewBox="0 0 25 31" fill="none" xmlns="http://www.w3.org/2000/svg"><path fill-rule="evenodd" clip-rule="evenodd" d="M8.12492 2.37502H4.47908C3.27096 2.37502 2.29158 3.3544 2.29158 4.56252V26.4375C2.29158 27.6456 3.27096 28.625 4.47908 28.625H20.5208C21.7289 28.625 22.7083 27.6456 22.7083 26.4375V8.20836H17.6041C17.2014 8.20836 16.8749 7.8819 16.8749 7.47919V2.37502H9.58325V4.56252C9.58325 4.96523 9.25679 5.29169 8.85408 5.29169C8.45138 5.29169 8.12492 4.96523 8.12492 4.56252V2.37502ZM24.1666 7.52002V26.4375C24.1666 28.4511 22.5343 30.0834 20.5208 30.0834H4.47909C2.46555 30.0834 0.833252 28.4511 0.833252 26.4375V4.56252C0.833252 2.54899 2.46555 0.916691 4.47909 0.916691H17.5633C17.7711 0.903078 17.9745 0.980834 18.1203 1.12961L23.9537 6.96294C24.1024 7.10873 24.1802 7.31217 24.1666 7.52002ZM18.3333 3.40752V6.75002H21.6772L18.3333 3.40607V3.40752ZM8.12492 20.3009V19.1459C8.12492 18.7432 8.45138 18.4167 8.85409 18.4167C9.25679 18.4167 9.58325 18.7432 9.58325 19.1459V20.3023L9.79617 20.5152C10.5939 21.3129 11.0416 22.3936 11.0416 23.5209C11.0416 24.729 10.0622 25.7084 8.85409 25.7084C7.64596 25.7084 6.66659 24.729 6.66659 23.5209C6.66659 22.3936 7.11429 21.3129 7.912 20.5167L8.12492 20.3009ZM8.12492 23.5209C8.12492 23.9236 8.45138 24.25 8.85408 24.25C9.25679 24.25 9.58325 23.9236 9.58325 23.5209C9.58325 22.8238 9.32221 22.1529 8.85408 21.6396C8.38596 22.1529 8.12492 22.8238 8.12492 23.5209ZM8.12492 7.47919C8.12492 7.07648 8.45138 6.75002 8.85408 6.75002C9.25679 6.75002 9.58325 7.07648 9.58325 7.47919V10.3959C9.58325 10.7986 9.25679 11.125 8.85408 11.125C8.45138 11.125 8.12492 10.7986 8.12492 10.3959V7.47919ZM8.12492 13.3125C8.12492 12.9098 8.45138 12.5834 8.85408 12.5834C9.25679 12.5834 9.58325 12.9098 9.58325 13.3125V16.2292C9.58325 16.6319 9.25679 16.9584 8.85408 16.9584C8.45138 16.9584 8.12492 16.6319 8.12492 16.2292V13.3125Z" fill="white"/></svg>
