<svg width="20" height="20" viewBox="0 0 20 20" fill="none" xmlns="http://www.w3.org/2000/svg">
<g opacity="0.3">
<path d="M8.44066 7.50007V13.1192C8.44715 13.5301 8.61493 13.922 8.9078 14.2103C9.20067 14.4985 9.59514 14.6601 10.0061 14.6601C10.417 14.6601 10.8115 14.4985 11.1044 14.2103C11.3972 13.922 11.565 13.5301 11.5715 13.1192L11.5766 5.75397C11.5809 5.40278 11.5154 5.05422 11.3839 4.72852C11.2525 4.40282 11.0577 4.10646 10.8108 3.8566C10.564 3.60674 10.27 3.40837 9.94592 3.27298C9.62184 3.13759 9.27411 3.06787 8.92289 3.06787C8.57166 3.06787 8.22393 3.13759 7.89985 3.27298C7.57577 3.40837 7.28178 3.60674 7.03494 3.8566C6.7881 4.10646 6.59331 4.40282 6.46186 4.72852C6.33041 5.05422 6.26491 5.40278 6.26917 5.75397V13.1688C6.26202 13.6633 6.35322 14.1542 6.53749 14.6131C6.72175 15.0719 6.99539 15.4896 7.34251 15.8418C7.68962 16.1939 8.10329 16.4736 8.55944 16.6645C9.0156 16.8554 9.50516 16.9537 9.99964 16.9537C10.4941 16.9537 10.9837 16.8554 11.4398 16.6645C11.896 16.4736 12.3097 16.1939 12.6568 15.8418C13.0039 15.4896 13.2775 15.0719 13.4618 14.6131C13.6461 14.1542 13.7373 13.6633 13.7301 13.1688V6.23991" stroke="black" stroke-width="1.4" stroke-miterlimit="10" stroke-linecap="round"/>
</g>
</svg>
