<svg width="20" height="20" viewBox="0 0 20 20" fill="none" xmlns="http://www.w3.org/2000/svg">
<g opacity="0.3">
<path d="M7.1875 10C7.70527 10 8.125 9.58027 8.125 9.0625C8.125 8.54473 7.70527 8.125 7.1875 8.125C6.66973 8.125 6.25 8.54473 6.25 9.0625C6.25 9.58027 6.66973 10 7.1875 10Z" fill="black"/>
<path d="M10.002 15C8.22777 15 6.73558 13.8465 6.26331 12.2723C6.2501 12.2255 6.24802 12.1762 6.25723 12.1284C6.26644 12.0806 6.28669 12.0356 6.31636 11.997C6.34603 11.9584 6.3843 11.9273 6.42812 11.9061C6.47195 11.885 6.52011 11.8743 6.56878 11.875H13.4317C13.4804 11.8743 13.5285 11.885 13.5724 11.9061C13.6162 11.9273 13.6544 11.9584 13.6841 11.997C13.7138 12.0356 13.734 12.0806 13.7432 12.1284C13.7525 12.1762 13.7504 12.2255 13.7372 12.2723C13.2688 13.8465 11.7762 15 10.002 15Z" fill="black"/>
<path d="M12.8125 10C13.3303 10 13.75 9.58027 13.75 9.0625C13.75 8.54473 13.3303 8.125 12.8125 8.125C12.2947 8.125 11.875 8.54473 11.875 9.0625C11.875 9.58027 12.2947 10 12.8125 10Z" fill="black"/>
<path d="M10 18.125C14.4873 18.125 18.125 14.4873 18.125 10C18.125 5.51269 14.4873 1.875 10 1.875C5.51269 1.875 1.875 5.51269 1.875 10C1.875 14.4873 5.51269 18.125 10 18.125Z" stroke="black" stroke-width="1.4" stroke-miterlimit="10"/>
</g>
</svg>
